# File created by Blade
# Date/Time:  Tue Sep 30 19:33:40 2014
#---------------------------------------------------------
:version 1.10
:name HOM
:units
  mass 1.0
  length 1.000000
  angle deg
:documentation
     Acclaim Skeleton File
:root
   axis xyz
   order TX TY TZ RX RY RZ
   position 0.000000 0.000000 0.000000
   orientation 0 0 0
:bonedata
   begin
      id 1
      name Spine_dum
      direction 0.000000 1.000000 0.000000
      length 3.241213
      axis 0.0 0.0 0.0 xyz
   end
   begin
      id 2
      name LeftUpLeg_dum
      direction 1.000000 0.000000 0.000000
      length 3.434019
      axis 0.0 0.0 0.0 xyz
   end
   begin
      id 3
      name RightUpLeg_dum
      direction -1.000000 0.000000 0.000000
      length 3.434019
      axis 0.0 0.0 0.0 xyz
   end
   begin
      id 4
      name Spine
      direction 0.000000 1.000000 0.000000
      length 0.000000
      axis 0.0 0.0 0.0 xyz
      dof rx ry rz
   end
   begin
      id 5
      name Spine_dum1
      direction 0.000000 1.000000 0.000000
      length 18.382958
      axis 0.0 0.0 0.0 xyz
   end
   begin
      id 6
      name Spine_dum2
      direction 0.000000 1.000000 0.000000
      length 12.828261
      axis 0.0 0.0 0.0 xyz
   end
   begin
      id 7
      name Spine_dum3
      direction 0.000000 1.000000 0.000000
      length 12.828261
      axis 0.0 0.0 0.0 xyz
   end
   begin
      id 8
      name Head
      direction 0.000000 1.000000 0.000000
      length 4.527550
      axis 0.0 0.0 0.0 xyz
      dof rx ry rz
   end
   begin
      id 9
      name LeftShoulder
      direction 1.000000 0.000000 0.000000
      length 7.748055
      axis 0.0 0.0 -90.0 xyz
      dof rx ry rz
   end
   begin
      id 10
      name LeftArm
      direction 1.000000 0.000000 0.000000
      length 10.635614
      axis 0.0 0.0 -90.0 xyz
      dof rx ry rz
   end
   begin
      id 11
      name LeftForeArm
      direction 1.000000 0.000000 0.000000
      length 8.346755
      axis 0.0 0.0 -90.0 xyz
      dof ry rz rx
   end
   begin
      id 12
      name LeftHand
      direction 0.000000 0.000000 0.000000
      length 0.000000
      axis 0.0 0.0 -90.0 xyz
      dof rx ry rz
   end
   begin
      id 13
      name LeftHand_dum1
      direction 0.000000 0.000000 0.000000
      length 0.000000
      axis 0.0 0.0 -90.0 xyz
   end
   begin
      id 14
      name LeftHand_dum2
      direction 1.000000 0.000000 0.000000
      length 3.937000
      axis 0.0 0.0 -90.0 xyz
   end
   begin
      id 15
      name LeftHandThumb1
      direction 0.000000 0.000000 1.000000
      length 3.937000
      axis 0.0 0.0 -90.0 xyz
      dof rx rz ry
   end
   begin
      id 16
      name RightShoulder
      direction -1.000000 0.000000 0.000000
      length 7.748055
      axis 0.0 0.0 90.0 xyz
      dof rx ry rz
   end
   begin
      id 17
      name RightArm
      direction -1.000000 0.000000 0.000000
      length 10.635614
      axis 0.0 0.0 90.0 xyz
      dof rx ry rz
   end
   begin
      id 18
      name RightForeArm
      direction -1.000000 0.000000 0.000000
      length 8.346755
      axis 0.0 0.0 90.0 xyz
      dof ry rz rx
   end
   begin
      id 19
      name RightHand
      direction 0.000000 0.000000 0.000000
      length 0.000000
      axis 0.0 0.0 90.0 xyz
      dof rx ry rz
   end
   begin
      id 20
      name RightHand_dum1
      direction 0.000000 0.000000 0.000000
      length 0.000000
      axis 0.0 0.0 90.0 xyz
   end
   begin
      id 21
      name RightHand_dum2
      direction -1.000000 0.000000 0.000000
      length 3.937000
      axis 0.0 0.0 90.0 xyz
   end
   begin
      id 22
      name RightHandThumb1
      direction 0.000000 0.000000 1.000000
      length 3.937000
      axis 0.0 0.0 90.0 xyz
      dof rx rz ry
   end
   begin
      id 23
      name LeftUpLeg
      direction 0.000000 -1.000000 0.000000
      length 15.713025
      axis 0.0 0.0 0.0 xyz
      dof rx ry rz
   end
   begin
      id 24
      name LeftLeg
      direction 0.000000 -1.000000 0.000000
      length 14.435119
      axis 0.0 0.0 0.0 xyz
      dof rx ry rz
   end
   begin
      id 25
      name LeftFoot
      direction 0.000000 -0.258819 0.965926
      length 4.938895
      axis 15.0 0.0 0.0 xyz
      dof rx ry rz
   end
   begin
      id 26
      name LeftToeBase
      direction 0.000000 0.000000 1.000000
      length 2.952750
      axis 0.0 0.0 0.0 xyz
      dof rx ry rz
   end
   begin
      id 27
      name RightUpLeg
      direction 0.000000 -1.000000 0.000000
      length 15.713025
      axis 0.0 0.0 0.0 xyz
      dof rx ry rz
   end
   begin
      id 28
      name RightLeg
      direction 0.000000 -1.000000 0.000000
      length 14.435119
      axis 0.0 0.0 0.0 xyz
      dof rx ry rz
   end
   begin
      id 29
      name RightFoot
      direction 0.000000 -0.258819 0.965926
      length 4.938895
      axis 15.0 0.0 0.0 xyz
      dof rx ry rz
   end
   begin
      id 30
      name RightToeBase
      direction 0.000000 0.000000 1.000000
      length 2.952750
      axis 0.0 0.0 0.0 xyz
      dof rx ry rz
   end
:hierarchy
   begin
      root Spine_dum LeftUpLeg_dum RightUpLeg_dum
      Spine_dum Spine
      LeftUpLeg_dum LeftUpLeg
      RightUpLeg_dum RightUpLeg
      Spine Spine_dum1 Spine_dum2 Spine_dum3
      Spine_dum1 Head
      Spine_dum2 LeftShoulder
      Spine_dum3 RightShoulder
      LeftShoulder LeftArm
      LeftArm LeftForeArm
      LeftForeArm LeftHand
      LeftHand LeftHand_dum1 LeftHand_dum2
      LeftHand_dum1 LeftHandThumb1
      RightShoulder RightArm
      RightArm RightForeArm
      RightForeArm RightHand
      RightHand RightHand_dum1 RightHand_dum2
      RightHand_dum1 RightHandThumb1
      LeftUpLeg LeftLeg
      LeftLeg LeftFoot
      LeftFoot LeftToeBase
      RightUpLeg RightLeg
      RightLeg RightFoot
      RightFoot RightToeBase
   end

# File created by Blade
# Date/Time:  Mon Sep 22 21:09:19 2014
# Frame Rate: 120.000 fps
#------------------------------------------------------
:FULLY-SPECIFIED
:DEGREES
790
root -2.824298 34.185259 -1.866270 -34.627024 52.750928 -71.345428
Spine -30.230214 -10.391911 38.875904
Head 7.087469 -1.459377 17.064722
LeftShoulder 1.377437 38.359633 26.557959
LeftArm 87.487305 26.562557 -41.401940
LeftForeArm -49.111310 -0.000000 62.708431
LeftHand -5.811877 -0.000000 -22.109341
LeftHandThumb1 -26.253704 0.000000 33.147579
RightShoulder -7.907063 -46.331923 -17.630931
RightArm 66.755671 -16.643530 51.823373
RightForeArm 60.525223 -0.000000 85.138238
RightHand -2.010657 -0.000000 1.256411
RightHandThumb1 -24.326973 -0.000000 -32.862282
LeftUpLeg -37.111148 14.927704 26.583282
LeftLeg 18.619851 -0.000000 -0.000000
LeftFoot -8.124099 11.223840 8.449356
LeftToeBase -0.706950 -0.000000 0.000000
RightUpLeg -136.297370 -46.286917 0.772034
RightLeg 98.028121 -0.000000 -0.000000
RightFoot 43.236777 -7.806401 -4.179602
RightToeBase 49.375589 -0.000000 -0.000000
791
root -2.826382 34.190285 -1.862960 -34.541631 52.696951 -71.319961
Spine -30.249709 -10.401573 38.912638
Head 7.119768 -1.358380 17.156805
LeftShoulder 1.389667 38.396173 26.601260
LeftArm 87.435825 26.576219 -41.486413
LeftForeArm -49.081469 0.000000 62.648139
LeftHand -5.785563 -0.000000 -22.136038
LeftHandThumb1 -26.253704 0.000000 33.147579
RightShoulder -7.878526 -46.313952 -17.582843
RightArm 66.801977 -16.666080 51.870205
RightForeArm 60.390996 -0.000000 85.053463
RightHand -2.025374 -0.000000 1.239634
RightHandThumb1 -24.326973 -0.000000 -32.862282
LeftUpLeg -37.101987 14.966424 26.615212
LeftLeg 18.543844 -0.000000 -0.000000
LeftFoot -8.044163 11.277879 8.663245
LeftToeBase -0.802757 -0.000000 0.000000
RightUpLeg -136.335308 -46.121826 0.809721
RightLeg 97.834846 -0.000000 -0.000000
RightFoot 43.243480 -7.852002 -4.229527
RightToeBase 49.205658 -0.000000 -0.000000
792
root -2.827014 34.194882 -1.860483 -34.459370 52.670561 -71.298363
Spine -30.276575 -10.408738 38.929757
Head 7.119014 -1.282681 17.254110
LeftShoulder 1.374330 38.440292 26.617251
LeftArm 87.423828 26.555862 -41.508174
LeftForeArm -49.026519 0.000000 62.609572
LeftHand -5.821756 -0.000000 -22.114178
LeftHandThumb1 -26.253704 0.000000 33.147579
RightShoulder -7.901671 -46.290024 -17.507754
RightArm 66.857484 -16.712627 51.911432
RightForeArm 60.306638 -0.000000 84.949034
RightHand -2.068839 -0.000000 1.292409
RightHandThumb1 -24.326973 -0.000000 -32.862282
LeftUpLeg -37.098026 15.008660 26.618055
LeftLeg 18.455312 -0.000000 -0.000000
LeftFoot -7.980575 11.280254 8.826656
LeftToeBase -0.833455 -0.000000 0.000000
RightUpLeg -136.406973 -45.973016 0.875115
RightLeg 97.691789 -0.000000 -0.000000
RightFoot 43.190476 -7.864941 -4.218120
RightToeBase 49.113395 -0.000000 -0.000000
793
root -2.828328 34.199297 -1.856994 -34.307506 52.645993 -71.227288
Spine -30.321969 -10.391934 38.913866
Head 7.115225 -1.222519 17.385602
LeftShoulder 1.313566 38.484817 26.607902
LeftArm 87.435043 26.533257 -41.476289
LeftForeArm -48.975913 -0.000000 62.570822
LeftHand -5.805799 -0.000000 -22.111285
LeftHandThumb1 -26.253704 0.000000 33.147579
RightShoulder -7.895066 -46.250912 -17.441961
RightArm 66.859974 -16.790066 52.017603
RightForeArm 60.234343 0.000000 84.853543
RightHand -2.131596 -0.000000 1.338815
RightHandThumb1 -24.326973 -0.000000 -32.862282
LeftUpLeg -37.104739 15.094257 26.582442
LeftLeg 18.346729 -0.000000 -0.000000
LeftFoot -7.930669 11.267786 9.025836
LeftToeBase -0.788765 -0.000000 0.000000
RightUpLeg -136.546249 -45.791567 0.965614
RightLeg 97.614482 -0.000000 -0.000000
RightFoot 43.122412 -7.858946 -4.110096
RightToeBase 49.151043 -0.000000 -0.000000
794
root -2.828586 34.202447 -1.854115 -34.140537 52.665033 -71.136056
Spine -30.385377 -10.371960 38.854296
Head 7.099810 -1.196473 17.505705
LeftShoulder 1.251351 38.505269 26.578959
LeftArm 87.443528 26.510395 -41.387064
LeftForeArm -48.976601 0.000000 62.564616
LeftHand -5.781810 -0.000000 -22.093656
LeftHandThumb1 -26.253704 0.000000 33.147579
RightShoulder -7.831000 -46.159626 -17.430234
RightArm 66.734231 -16.919465 52.221928
RightForeArm 60.125416 0.000000 84.788339
RightHand -2.240833 -0.000000 1.464283
RightHandThumb1 -24.326973 -0.000000 -32.862282
LeftUpLeg -37.119590 15.141925 26.507282
LeftLeg 18.232501 -0.000000 -0.000000
LeftFoot -7.849338 11.255245 9.190689
LeftToeBase -0.864330 -0.000000 0.000000
RightUpLeg -136.790056 -45.559529 1.142986
RightLeg 97.567334 -0.000000 -0.000000
RightFoot 43.136136 -7.853240 -4.294948
RightToeBase 49.241755 -0.000000 -0.000000
795
root -2.826262 34.205382 -1.851678 -33.905158 52.682648 -70.992976
Spine -30.455867 -10.297269 38.765959
Head 7.049607 -1.182436 17.611002
LeftShoulder 1.137574 38.520682 26.498675
LeftArm 87.502356 26.497631 -41.202356
LeftForeArm -48.992574 -0.000000 62.558099
LeftHand -5.719188 -0.000000 -22.062247
LeftHandThumb1 -26.253704 0.000000 33.147579
RightShoulder -7.909104 -46.151603 -17.289423
RightArm 66.714263 -16.996393 52.289854
RightForeArm 59.988554 -0.000000 84.710182
RightHand -2.244452 0.000000 1.621615
RightHandThumb1 -24.326973 -0.000000 -32.862282
LeftUpLeg -37.116811 15.181544 26.425357
LeftLeg 18.081922 -0.000000 -0.000000
LeftFoot -7.827401 11.264122 9.231123
LeftToeBase -0.792978 -0.000000 0.000000
RightUpLeg -137.069087 -45.311270 1.323945
RightLeg 97.567217 -0.000000 -0.000000
RightFoot 43.101342 -7.781916 -4.222447
RightToeBase 49.367705 -0.000000 -0.000000
796
root -2.823247 34.208056 -1.851000 -33.654889 52.708155 -70.846885
Spine -30.554525 -10.197919 38.672772
Head 7.035340 -1.181483 17.684592
LeftShoulder 1.079705 38.528954 26.443363
LeftArm 87.512694 26.496359 -41.076067
LeftForeArm -48.981821 -0.000000 62.561334
LeftHand -5.671086 0.000000 -22.056806
LeftHandThumb1 -26.253704 0.000000 33.147579
RightShoulder -7.958137 -46.200835 -17.172231
RightArm 66.719058 -17.023129 52.359064
RightForeArm 59.824628 -0.000000 84.610563
RightHand -2.342095 -0.000000 1.787148
RightHandThumb1 -24.326973 -0.000000 -32.862282
LeftUpLeg -37.142297 15.228173 26.319944
LeftLeg 17.949798 -0.000000 -0.000000
LeftFoot -7.755617 11.295293 9.354482
LeftToeBase -0.803399 -0.000000 0.000000
RightUpLeg -137.395541 -45.031241 1.562559
RightLeg 97.613323 -0.000000 -0.000000
RightFoot 43.062834 -7.823045 -4.072764
RightToeBase 49.253524 -0.000000 -0.000000
797
root -2.817979 34.208244 -1.851666 -33.447309 52.733975 -70.712711
Spine -30.627608 -10.094208 38.586459
Head 6.996897 -1.197088 17.694125
LeftShoulder 1.042312 38.539552 26.400071
LeftArm 87.520901 26.511807 -40.989669
LeftForeArm -48.966732 0.000000 62.546269
LeftHand -5.613786 -0.000000 -22.068708
LeftHandThumb1 -26.253704 0.000000 33.147579
RightShoulder -8.026101 -46.269226 -17.061159
RightArm 66.735574 -17.035367 52.415864
RightForeArm 59.755527 -0.000000 84.525269
RightHand -2.351028 -0.000000 1.858900
RightHandThumb1 -24.326973 -0.000000 -32.862282
LeftUpLeg -37.133086 15.221163 26.244169
LeftLeg 17.836543 -0.000000 -0.000000
LeftFoot -7.726158 11.342521 9.446010
LeftToeBase -0.792586 -0.000000 0.000000
RightUpLeg -137.713512 -44.723264 1.835446
RightLeg 97.687395 -0.000000 -0.000000
RightFoot 43.125088 -7.955101 -3.955476
RightToeBase 49.130888 -0.000000 -0.000000
798
root -2.810664 34.207042 -1.856501 -33.229751 52.779822 -70.565493
Spine -30.706403 -9.993961 38.501950
Head 6.955187 -1.192355 17.657493
LeftShoulder 0.997529 38.577189 26.348245
LeftArm 87.535464 26.533131 -40.956905
LeftForeArm -48.938799 -0.000000 62.495776
LeftHand -5.554541 -0.000000 -22.022881
LeftHandThumb1 -26.253704 0.000000 33.147579
RightShoulder -8.094729 -46.331364 -16.970682
RightArm 66.787726 -17.031414 52.400768
RightForeArm 59.757263 0.000000 84.427432
RightHand -2.325316 -0.000000 1.939911
RightHandThumb1 -24.326973 -0.000000 -32.862282
LeftUpLeg -37.151230 15.181786 26.147759
LeftLeg 17.751943 -0.000000 -0.000000
LeftFoot -7.633183 11.428158 9.555536
LeftToeBase -0.923782 -0.000000 0.000000
RightUpLeg -138.033833 -44.409955 2.123762
RightLeg 97.785056 -0.000000 -0.000000
RightFoot 43.125591 -8.154438 -3.786346
RightToeBase 49.127645 -0.000000 -0.000000
799
root -2.800089 34.204572 -1.863424 -33.061540 52.808813 -70.418204
Spine -30.690724 -9.873258 38.408970
Head 6.761740 -1.202519 17.604393
LeftShoulder 0.919895 38.536927 26.285106
LeftArm 87.555551 26.622225 -40.942693
LeftForeArm -48.846020 -0.000000 62.450601
LeftHand -5.545050 -0.000000 -21.986598
LeftHandThumb1 -26.253704 0.000000 33.147579
RightShoulder -8.351151 -46.311125 -16.738388
RightArm 66.890337 -17.048706 52.235985
RightForeArm 59.859006 -0.000000 84.280499
RightHand -2.297131 -0.000000 2.089892
RightHandThumb1 -24.326973 -0.000000 -32.862282
LeftUpLeg -37.133155 15.108295 26.091825
LeftLeg 17.724636 -0.000000 -0.000000
LeftFoot -7.612951 11.502793 9.578155
LeftToeBase -0.954739 -0.000000 0.000000
RightUpLeg -138.281239 -44.069335 2.391382
RightLeg 97.925298 -0.000000 -0.000000
RightFoot 43.103358 -8.254186 -3.762135
RightToeBase 49.145239 -0.000000 -0.000000
800
root -2.786764 34.198382 -1.874749 -32.988696 52.867741 -70.330887
Spine -30.747373 -9.844369 38.398963
Head 6.837068 -1.173022 17.407481
LeftShoulder 0.991866 38.617578 26.287791
LeftArm 87.478784 26.608695 -41.072408
LeftForeArm -48.744588 -0.000000 62.455158
LeftHand -5.657220 -0.000000 -21.959763
LeftHandThumb1 -26.253704 0.000000 33.147579
RightShoulder -8.215898 -46.350105 -16.880423
RightArm 66.941055 -17.019963 52.199759
RightForeArm 59.935605 -0.000000 84.108595
RightHand -2.308450 -0.000000 2.300023
RightHandThumb1 -24.326973 -0.000000 -32.862282
LeftUpLeg -37.134994 14.960522 26.053444
LeftLeg 17.767689 -0.000000 -0.000000
LeftFoot -7.580252 11.605553 9.599806
LeftToeBase -1.089812 -0.000000 0.000000
RightUpLeg -138.488691 -43.780094 2.682826
RightLeg 98.073065 -0.000000 -0.000000
RightFoot 43.185883 -8.262002 -3.805569
RightToeBase 48.969765 -0.000000 -0.000000
801
root -2.772315 34.189950 -1.888817 -32.904023 52.923837 -70.222694
Spine -30.769804 -9.814680 38.394742
Head 6.831295 -1.106272 17.183418
LeftShoulder 1.017107 38.685743 26.271107
LeftArm 87.446867 26.617685 -41.168157
LeftForeArm -48.660286 -0.000000 62.449589
LeftHand -5.803700 -0.000000 -21.862601
LeftHandThumb1 -26.253704 0.000000 33.147579
RightShoulder -8.139218 -46.342078 -17.016046
RightArm 67.031703 -17.019648 52.097948
RightForeArm 60.116154 -0.000000 83.902535
RightHand -2.240002 0.000000 2.294716
RightHandThumb1 -24.326973 -0.000000 -32.862282
LeftUpLeg -37.152294 14.856672 25.983744
LeftLeg 17.860323 -0.000000 -0.000000
LeftFoot -7.640062 11.650963 9.528579
LeftToeBase -1.077572 -0.000000 0.000000
RightUpLeg -138.635136 -43.509094 2.900989
RightLeg 98.221700 -0.000000 -0.000000
RightFoot 43.199598 -8.350213 -3.608458
RightToeBase 49.124952 -0.000000 -0.000000
802
root -2.758982 34.178792 -1.902729 -32.765864 53.009720 -70.053979
Spine -30.778340 -9.746760 38.311039
Head 6.756915 -1.078433 16.959726
LeftShoulder 1.038413 38.672832 26.278718
LeftArm 87.401975 26.678062 -41.241441
LeftForeArm -48.577894 -0.000000 62.479431
LeftHand -5.890812 -0.000000 -21.752264
LeftHandThumb1 -26.253704 0.000000 33.147579
RightShoulder -8.110228 -46.298412 -17.121182
RightArm 67.054880 -17.064499 52.033367
RightForeArm 60.264511 -0.000000 83.757427
RightHand -2.190612 -0.000000 2.260928
RightHandThumb1 -24.326973 -0.000000 -32.862282
LeftUpLeg -37.217043 14.844862 25.815595
LeftLeg 17.994244 -0.000000 -0.000000
LeftFoot -7.720230 11.607799 9.451035
LeftToeBase -1.154026 -0.000000 0.000000
RightUpLeg -138.810367 -43.225265 3.088502
RightLeg 98.395103 -0.000000 -0.000000
RightFoot 43.199446 -8.352131 -3.515243
RightToeBase 49.100524 -0.000000 -0.000000
